<svg xmlns="http://www.w3.org/2000/svg" width="41" height="41" viewBox="0 0 41 41" fill="none"><path d="M17.9406 16.9898C17.9406 16.5363 17.5741 16.1636 17.1144 16.1636C16.6609 16.1636 16.2882 16.5363 16.2882 16.9898C16.2882 17.4495 16.6609 17.816 17.1144 17.816C17.5741 17.8222 17.9406 17.4557 17.9406 16.9898Z" fill="#5C8097"></path><path d="M23.8918 17.8223C24.3515 17.8223 24.7181 17.4558 24.7181 16.9961C24.7181 16.5426 24.3515 16.1699 23.8918 16.1699C23.4384 16.1699 23.0656 16.5426 23.0656 16.9961C23.0594 17.4558 23.4321 17.8223 23.8918 17.8223Z" fill="#5C8097"></path><path d="M20.5 22.494C21.0405 22.494 21.5809 22.289 21.9909 21.879C22.1152 21.7609 22.1152 21.5622 21.9909 21.4379C21.8667 21.3137 21.6741 21.3137 21.5498 21.4379C20.9659 22.0156 20.0217 22.0156 19.4377 21.4379C19.3197 21.3199 19.1209 21.3199 18.9967 21.4379C18.8786 21.5622 18.8786 21.7547 18.9967 21.879C19.4191 22.289 19.9595 22.494 20.5 22.494Z" fill="#5C8097"></path><path d="M20.5 19.9656C21.0156 19.9656 21.4318 19.5494 21.4318 19.0338C21.4318 18.8598 21.2951 18.7231 21.1212 18.7231C20.9473 18.7231 20.8106 18.8598 20.8106 19.0338C20.8106 19.2015 20.6739 19.3444 20.5 19.3444C20.3261 19.3444 20.1894 19.2077 20.1894 19.0338C20.1894 18.8598 20.0527 18.7231 19.8788 18.7231C19.7048 18.7231 19.5682 18.8598 19.5682 19.0338C19.5682 19.5494 19.9844 19.9656 20.5 19.9656Z" fill="#5C8097"></path><path d="M20.5 7.70264C19.8477 7.70264 19.3135 8.23688 19.3135 8.88915C19.3135 9.54764 19.8477 10.0819 20.5 10.0819C21.1523 10.0819 21.6865 9.54764 21.6865 8.88915C21.6865 8.23688 21.1523 7.70264 20.5 7.70264ZM20.5 9.46067C20.1894 9.46067 19.9347 9.20597 19.9347 8.88915C19.9347 8.57855 20.1894 8.32385 20.5 8.32385C20.8106 8.32385 21.0653 8.57855 21.0653 8.88915C21.0653 9.20597 20.8106 9.46067 20.5 9.46067Z" fill="#5C8097"></path><path d="M38.0741 38.9622H35.3346V33.0421C35.3346 30.5013 33.7132 28.2774 31.2967 27.4946L27.967 26.4137C27.967 26.4137 27.9608 26.4137 27.9608 26.4075L26.8364 26.041L24.9044 25.4136V23.3325C26.1717 22.0715 27.1221 20.2886 27.5321 18.2137C28.3956 17.8162 28.9671 16.934 28.9671 15.9649C28.9671 15.7662 28.9361 15.5674 28.8864 15.3748H29.3212H29.3274C29.725 15.3748 30.1039 15.2195 30.3897 14.9399C30.6755 14.6542 30.8308 14.2815 30.8308 13.8777C30.8308 13.4739 30.6755 13.0949 30.3959 12.8092C30.1102 12.5234 29.7374 12.3681 29.3336 12.3619H29.1597V11.6227C29.1597 10.6722 29.0044 9.74661 28.7062 8.86448C28.29 7.60342 27.5694 6.44176 26.6189 5.49752C26.4947 5.37327 26.3642 5.24903 26.24 5.14964C25.4697 4.47251 24.5752 3.93827 23.5936 3.55933V2.68964C23.5936 1.98767 23.0221 1.42236 22.3264 1.42236H18.6799C17.9779 1.42236 17.4126 1.99388 17.4126 2.68964V3.55933C16.4249 3.93827 15.5303 4.47252 14.76 5.16206C13.617 6.16842 12.7597 7.45433 12.2938 8.87691C11.9894 9.75903 11.8403 10.6846 11.8403 11.6351V12.3184H11.6788H11.6726C10.8464 12.3184 10.1692 12.9893 10.1692 13.8155C10.1692 14.648 10.8402 15.3251 11.6664 15.3251H12.1261C12.0702 15.5363 12.0329 15.7475 12.0329 15.9712C12.0329 16.9402 12.6044 17.8224 13.4679 18.2199C13.8779 20.2948 14.8283 22.0777 16.0956 23.3387V25.4198L13.0579 26.4075L9.70334 27.4946C7.28682 28.2712 5.66546 30.5013 5.66546 33.0421V38.9622H2.93213C2.75819 38.9622 2.62152 39.0989 2.62152 39.2728C2.62152 39.4468 2.75819 39.5834 2.93213 39.5834H5.97607H18.6302H22.3761H35.0302H38.0803C38.2542 39.5834 38.3909 39.4468 38.3909 39.2728C38.3909 39.0989 38.248 38.9622 38.0741 38.9622ZM26.563 26.6125L27.383 26.8796L24.3142 31.6008C24.2335 31.7313 24.103 31.8183 23.9539 31.8431C23.8049 31.8742 23.6495 31.8369 23.5253 31.7499L22.2767 30.8554L20.9659 29.9174L23.0097 27.7618L24.687 25.9975L26.563 26.6125ZM21.8977 31.3524L22.2767 31.7313L21.2952 32.7128H19.6986L18.7171 31.7313L19.0774 31.371L20.5 30.3522L21.8977 31.3524ZM16.7106 25.5254V23.904C17.3318 24.401 18.0027 24.7675 18.6985 25.0036H18.7047C18.8786 25.0657 19.0588 25.1154 19.2389 25.1527C19.27 25.1589 19.3011 25.1651 19.3321 25.1713C19.4874 25.2024 19.6427 25.2272 19.798 25.2521C19.8415 25.2583 19.8788 25.2645 19.9223 25.2707C20.1149 25.2893 20.3074 25.3018 20.5 25.3018C20.6926 25.3018 20.8852 25.2893 21.0715 25.2707C21.115 25.2645 21.1585 25.2583 21.202 25.2521C21.3573 25.2334 21.5126 25.2086 21.6617 25.1775C21.6989 25.1713 21.73 25.1651 21.7673 25.1527C21.9412 25.1154 22.1152 25.0657 22.2829 25.0098C22.2953 25.0036 22.3015 25.0036 22.3139 24.9974C22.8855 24.8048 23.4321 24.519 23.9602 24.1463C23.9664 24.1401 23.9664 24.1401 23.9726 24.1339C24.0782 24.0593 24.19 23.9786 24.2894 23.8978V25.5192L22.3077 27.6127L20.5 29.5198L16.7106 25.5254ZM26.1841 5.951C26.9917 6.75236 27.6067 7.72767 28.0042 8.78373L24.8858 9.82115L26.1779 5.94479C26.1779 5.951 26.1841 5.951 26.1841 5.951ZM14.8283 5.96964L16.1142 9.82736L12.9958 8.78994C13.3933 7.73388 14.0208 6.77721 14.8283 5.96964ZM12.4553 11.6351C12.4553 10.8586 12.5733 10.1007 12.7908 9.37388L16.5056 10.6101C16.5367 10.6225 16.5677 10.6287 16.605 10.6287C16.6858 10.6287 16.7665 10.5977 16.8224 10.5355C16.9032 10.4548 16.9342 10.3305 16.897 10.2187L15.3253 5.50373C15.9465 4.9757 16.6423 4.55327 17.4064 4.23645V6.30509C17.4064 6.47903 17.543 6.6157 17.717 6.6157C17.8909 6.6157 18.0276 6.47903 18.0276 6.30509V2.68964C18.0276 2.32933 18.3196 2.04358 18.6736 2.04358H22.3202C22.6805 2.04358 22.9662 2.33555 22.9662 2.68964V6.29888C22.9662 6.47282 23.1029 6.60948 23.2768 6.60948C23.4508 6.60948 23.5874 6.47282 23.5874 6.29888V4.23024C24.3515 4.54706 25.0473 4.96948 25.6747 5.49752L24.103 10.2125C24.0658 10.3243 24.0968 10.4486 24.1776 10.5293C24.2397 10.5915 24.3142 10.6225 24.395 10.6225C24.4261 10.6225 24.4633 10.6163 24.4944 10.6039L28.2092 9.36767C28.4267 10.0945 28.5447 10.8524 28.5447 11.6289V12.3122H12.4553V11.6351ZM11.6664 14.7101C11.1818 14.7101 10.7842 14.3125 10.7842 13.8218C10.7842 13.5857 10.8774 13.3621 11.0452 13.2005C11.2129 13.0328 11.4303 12.9458 11.6664 12.9458C11.6664 12.9458 11.6664 12.9458 11.6726 12.9458L29.3336 13.0018C29.8182 13.0018 30.2158 13.3993 30.2158 13.8901C30.2158 14.1262 30.1226 14.3498 29.9549 14.5113C29.7871 14.679 29.5697 14.766 29.3336 14.766C29.3336 14.766 29.3336 14.766 29.3274 14.766L11.6664 14.7101ZM14.0456 17.9466C14.0208 17.841 13.9524 17.7478 13.8468 17.7105C13.1324 17.4434 12.6541 16.7477 12.6541 15.9774C12.6541 15.7537 12.6914 15.5363 12.7659 15.3313L28.2465 15.381C28.3149 15.5736 28.3459 15.7724 28.3459 15.9774C28.3459 16.7477 27.8676 17.4434 27.1532 17.7105C27.0538 17.7478 26.9606 17.8348 26.9544 17.9466C26.6624 24.2333 16.8224 28.9358 14.0456 17.9466ZM16.3068 26.0037L20.0279 29.9236L17.4685 31.7561C17.3442 31.8431 17.1952 31.8804 17.0399 31.8493C16.8908 31.8183 16.7603 31.7313 16.6796 31.6071L13.6108 26.8858L16.3068 26.0037ZM18.3568 38.9622H6.28046V33.0421C6.28046 30.7746 7.72789 28.7805 9.8897 28.0848L12.9958 27.0784L16.1577 31.9425C16.3317 32.2158 16.605 32.396 16.928 32.4581C17.0026 32.4705 17.0771 32.4768 17.1517 32.4768C17.3939 32.4768 17.63 32.4022 17.835 32.2593L18.1456 32.0357L19.2389 33.129L18.3568 38.9622ZM18.9842 38.9622L19.8353 33.334H21.1647L22.0158 38.9622H18.9842ZM34.7133 38.9622H22.637L21.7549 33.129L22.8482 32.0357L23.1588 32.2593C23.3638 32.4022 23.5999 32.4768 23.8421 32.4768C23.9167 32.4768 23.9912 32.4705 24.0658 32.4581C24.3826 32.396 24.6559 32.2158 24.8361 31.9425L27.998 27.0784L31.1041 28.0848C33.2659 28.7805 34.7133 30.7684 34.7133 33.0421V38.9622Z" fill="#5C8097"></path></svg>