<svg xmlns="http://www.w3.org/2000/svg" width="37" height="37" viewBox="0 0 37 37" fill="none"><path d="M17.2194 0.5625C16.5207 0.5625 15.9382 1.14499 15.9382 1.84375V3.76563C18.0723 3.7678 18.929 3.76771 21.0631 3.76563V1.84375C21.0631 1.14499 20.4806 0.5625 19.7819 0.5625H17.2194ZM14.6582 2.55444C12.0733 3.59531 10.0312 5.66091 8.99638 8.2475H11.2936C12.129 8.26614 12.129 9.51021 11.2936 9.52875H8.89128C7.81548 9.52875 6.9719 10.3786 6.9719 11.4544C6.9719 12.5302 7.81548 13.3737 8.89128 13.3737H28.11C29.1858 13.3737 30.0306 12.5302 30.0306 11.4544C30.0306 10.3786 29.1858 9.52875 28.11 9.52875H25.7077C24.8723 9.51034 24.8723 8.26603 25.7077 8.2475H27.9987C26.9647 5.66201 24.925 3.59653 22.3419 2.5557V4.37372V4.405C22.3419 4.75881 22.0551 5.04559 21.7013 5.04563C19.5667 5.04774 17.4321 5.04781 15.2975 5.04563C14.9442 5.04492 14.6582 4.75832 14.6582 4.405V4.37372V2.55444ZM16.5813 6.32812H20.4213C20.5066 6.32623 20.5914 6.34141 20.6708 6.37275C20.7502 6.4041 20.8225 6.45098 20.8835 6.51066C20.9445 6.57033 20.993 6.64159 21.0261 6.72026C21.0592 6.79892 21.0763 6.88341 21.0763 6.96875C21.0763 7.05409 21.0592 7.13858 21.0261 7.21724C20.993 7.29591 20.9445 7.36717 20.8835 7.42685C20.8225 7.48652 20.7502 7.53341 20.6708 7.56475C20.5914 7.5961 20.5066 7.61127 20.4213 7.60938H16.5813C16.4138 7.60566 16.2545 7.53654 16.1374 7.4168C16.0203 7.29707 15.9547 7.13624 15.9547 6.96875C15.9547 6.80126 16.0203 6.64043 16.1374 6.5207C16.2545 6.40096 16.4138 6.33184 16.5813 6.32812ZM16.5813 8.2475H20.4213C20.5887 8.25121 20.7481 8.32033 20.8652 8.44007C20.9823 8.5598 21.0479 8.72063 21.0479 8.88812C21.0479 9.05561 20.9823 9.21644 20.8652 9.33618C20.7481 9.45591 20.5887 9.52504 20.4213 9.52875H16.5813C16.4138 9.52504 16.2545 9.45591 16.1374 9.33618C16.0203 9.21644 15.9547 9.05561 15.9547 8.88812C15.9547 8.72063 16.0203 8.5598 16.1374 8.44007C16.2545 8.32033 16.4138 8.25121 16.5813 8.2475ZM10.429 14.655C11.2806 17.971 14.2738 20.4244 17.8563 20.4244H19.1375C22.72 20.4244 25.7181 17.971 26.571 14.655H10.429ZM13.3006 21.7019L18.4994 28.1907L23.6982 21.7019H18.4994H13.3006ZM11.674 21.7193C8.74997 21.8041 6.35622 22.7529 4.54577 24.1729C6.46495 25.7736 7.79689 28.064 8.1593 30.668H17.8575V29.4356L17.5222 29.0177C17.5141 29.0082 17.5062 28.9986 17.4985 28.9889L12.3009 22.5013L11.674 21.7193ZM25.3248 21.7193L24.723 22.4713C24.7156 22.4814 24.7081 22.4914 24.7004 22.5013L22.2956 25.5005L19.1388 29.4406V30.668H28.8432C29.2055 28.064 30.5365 25.7748 32.4555 24.1742C30.6446 22.7533 28.2502 21.8039 25.3248 21.7193ZM3.56357 25.015C1.60476 26.9712 0.563141 29.5313 0.563141 31.9543V35.7993C0.563823 35.9683 0.631273 36.1302 0.750797 36.2498C0.870321 36.3693 1.03223 36.4367 1.20126 36.4374H6.9794V32.1107C6.9794 29.2236 5.64559 26.668 3.56357 25.015ZM33.4365 25.015C31.3542 26.668 30.0194 29.2236 30.0194 32.1107V36.4374H35.7988C35.9678 36.4367 36.1297 36.3693 36.2492 36.2498C36.3688 36.1302 36.4362 35.9683 36.4369 35.7993V31.9543C36.4369 29.5313 35.3953 26.9712 33.4365 25.015ZM8.25815 31.9543C8.25892 32.0065 8.26321 32.0582 8.26321 32.1107V36.4374H17.8576V31.9543L8.25815 31.9543ZM19.1388 31.9543V36.4374H28.7394V32.1107C28.7394 32.0583 28.7435 32.0066 28.7445 31.9543L19.1388 31.9543Z" fill="#5C8097"></path></svg>