<svg xmlns="http://www.w3.org/2000/svg" width="58" height="58"><path d="M0 0 C5.61492225 4.34430407 9.69308237 10.69181162 11 17.71484375 C11.87739587 27.52441726 10.41697368 35.63743904 4.3125 43.52734375 C-0.70241415 48.92507577 -7.34843511 52.29879469 -14.6640625 52.953125 C-24.31971613 53.19515326 -32.26005642 51.185997 -39.46484375 44.4921875 C-45.65580893 37.32453061 -47.37879785 30.13768085 -47.27734375 20.8828125 C-46.58541453 12.9792266 -43.013083 5.90856159 -37 0.71484375 C-25.22990365 -7.16600337 -12.12447224 -7.79092064 0 0 Z M-32 3.71484375 C-32.886875 4.25109375 -33.77375 4.78734375 -34.6875 5.33984375 C-39.8201045 10.61116729 -42.30201206 16.49036258 -42.5625 23.83984375 C-42.31695928 29.30487872 -41.02045287 33.19472547 -38 37.71484375 C-37.46375 38.60171875 -36.9275 39.48859375 -36.375 40.40234375 C-31.10367646 45.53494825 -25.22448117 48.01685581 -17.875 48.27734375 C-12.40996503 48.03180303 -8.52011828 46.73529662 -4 43.71484375 C-3.113125 43.17859375 -2.22625 42.64234375 -1.3125 42.08984375 C3.8201045 36.81852021 6.30201206 30.93932492 6.5625 23.58984375 C6.31695928 18.12480878 5.02045287 14.23496203 2 9.71484375 C1.46375 8.82796875 0.9275 7.94109375 0.375 7.02734375 C-4.89632354 1.89473925 -10.77551883 -0.58716831 -18.125 -0.84765625 C-23.59003497 -0.60211553 -27.47988172 0.69439088 -32 3.71484375 Z " fill="#000000" transform="translate(47,5.28515625)"></path><path d="M0 0 C0.66 0 1.32 0 2 0 C2.08333357 4.8333472 1.95261487 9.23692563 1 14 C3.31 14 5.62 14 8 14 C8.33 14.66 8.66 15.32 9 16 C7.3855003 19.6720228 5.25750606 23.09270828 3.25 26.5625 C2.69828125 27.54669922 2.1465625 28.53089844 1.578125 29.54492188 C1.041875 30.48013672 0.505625 31.41535156 -0.046875 32.37890625 C-0.54026367 33.2407251 -1.03365234 34.10254395 -1.54199219 34.99047852 C-3 37 -3 37 -6 38 C-6.08333357 33.1666528 -5.95261487 28.76307437 -5 24 C-7.31 24 -9.62 24 -12 24 C-12.33 23.34 -12.66 22.68 -13 22 C-12.02783203 19.86108398 -12.02783203 19.86108398 -10.5078125 17.24609375 C-9.69763672 15.84133789 -9.69763672 15.84133789 -8.87109375 14.40820312 C-8.29488281 13.42787109 -7.71867187 12.44753906 -7.125 11.4375 C-6.55652344 10.45330078 -5.98804688 9.46910156 -5.40234375 8.45507812 C-1.18165025 1.18165025 -1.18165025 1.18165025 0 0 Z " fill="#7BACCC" transform="translate(31,10)"></path></svg>