<svg xmlns="http://www.w3.org/2000/svg" width="37" height="39"><path d="M0 0 C3.625 0.625 3.625 0.625 6.4375 3.3125 C9.36466181 7.74505932 10.625 10.29109222 10.625 15.625 C9.965 15.625 9.305 15.625 8.625 15.625 C8.191875 17.0171875 8.191875 17.0171875 7.75 18.4375 C6.625 21.625 6.625 21.625 4.625 24.625 C5.25148438 24.80675781 5.87796875 24.98851563 6.5234375 25.17578125 C7.34070313 25.42714844 8.15796875 25.67851562 9 25.9375 C10.21816406 26.30294922 10.21816406 26.30294922 11.4609375 26.67578125 C13.625 27.625 13.625 27.625 15.625 30.625 C15.88260279 33.31952521 15.71400053 35.91048375 15.625 38.625 C16.615 38.955 17.605 39.285 18.625 39.625 C6.415 39.625 -5.795 39.625 -18.375 39.625 C-16.89 39.13 -16.89 39.13 -15.375 38.625 C-15.436875 37.3875 -15.49875 36.15 -15.5625 34.875 C-15.53919681 32.23707841 -15.41063269 30.70962763 -14.375 28.25 C-11.31229369 25.76155112 -8.2271863 25.38280714 -4.375 24.625 C-4.81972656 23.96113281 -5.26445312 23.29726563 -5.72265625 22.61328125 C-6.57150391 21.28876953 -6.57150391 21.28876953 -7.4375 19.9375 C-8.00597656 19.06738281 -8.57445312 18.19726562 -9.16015625 17.30078125 C-10.59065175 14.15001143 -10.44492377 12.86192674 -9.375 9.625 C-8 7.0625 -8 7.0625 -6.375 4.625 C-5.9625 3.861875 -5.55 3.09875 -5.125 2.3125 C-3.375 0.625 -3.375 0.625 0 0 Z M-1.375 1.625 C-2.87321059 4.99597383 -3.375 6.82942119 -3.375 10.625 C-4.695 10.295 -6.015 9.965 -7.375 9.625 C-7.375 10.285 -7.375 10.945 -7.375 11.625 C-2.425 11.625 2.525 11.625 7.625 11.625 C7.625 10.965 7.625 10.305 7.625 9.625 C6.305 9.955 4.985 10.285 3.625 10.625 C3.851875 9.696875 4.07875 8.76875 4.3125 7.8125 C4.95774301 4.69535975 4.95774301 4.69535975 3.375 2.75 C1.55114653 1.3546212 1.55114653 1.3546212 -1.375 1.625 Z M-4.375 4.625 C-3.375 6.625 -3.375 6.625 -3.375 6.625 Z M-6.375 6.625 C-5.375 8.625 -5.375 8.625 -5.375 8.625 Z M5.625 6.625 C6.625 8.625 6.625 8.625 6.625 8.625 Z M-8.375 12.625 C-8.375 12.955 -8.375 13.285 -8.375 13.625 C-2.765 13.625 2.845 13.625 8.625 13.625 C8.625 13.295 8.625 12.965 8.625 12.625 C3.015 12.625 -2.595 12.625 -8.375 12.625 Z M-7.375 15.625 C-5.10421229 19.79212988 -5.10421229 19.79212988 -2.375 23.625 C0.21421773 24.54265886 0.21421773 24.54265886 2.625 23.625 C5.79998601 21.39075059 6.07731543 19.49421141 7.625 15.625 C2.675 15.625 -2.275 15.625 -7.375 15.625 Z M-3.375 24.625 C-2.055 25.945 -0.735 27.265 0.625 28.625 C1.615 27.305 2.605 25.985 3.625 24.625 C1.315 24.625 -0.995 24.625 -3.375 24.625 Z M-5.375 26.625 C-4.715 27.945 -4.055 29.265 -3.375 30.625 C-2.715 29.965 -2.055 29.305 -1.375 28.625 C-2.695 27.965 -4.015 27.305 -5.375 26.625 Z M3.625 26.625 C2.635 28.11 2.635 28.11 1.625 29.625 C2.615 29.625 3.605 29.625 4.625 29.625 C4.955 28.635 5.285 27.645 5.625 26.625 C4.965 26.625 4.305 26.625 3.625 26.625 Z M-12.0625 28.625 C-14.1715 31.83871429 -13.56114585 34.84003429 -13.375 38.625 C-9.745 38.625 -6.115 38.625 -2.375 38.625 C-2.045 36.645 -1.715 34.665 -1.375 32.625 C-2.365 32.295 -3.355 31.965 -4.375 31.625 C-4.87 30.944375 -5.365 30.26375 -5.875 29.5625 C-6.37 28.923125 -6.865 28.28375 -7.375 27.625 C-10.27177829 27.3700988 -10.27177829 27.3700988 -12.0625 28.625 Z M7.625 27.625 C6.60471135 28.94287285 5.60528616 30.27710653 4.625 31.625 C3.635 31.955 2.645 32.285 1.625 32.625 C1.955 34.605 2.285 36.585 2.625 38.625 C6.255 38.625 9.885 38.625 13.625 38.625 C14.11632293 33.33937429 14.11632293 33.33937429 12.3125 28.625 C10.52177829 27.3700988 10.52177829 27.3700988 7.625 27.625 Z M-0.375 33.625 C-0.375 35.275 -0.375 36.925 -0.375 38.625 C-0.045 38.625 0.285 38.625 0.625 38.625 C0.625 36.975 0.625 35.325 0.625 33.625 C0.295 33.625 -0.035 33.625 -0.375 33.625 Z " fill="#5C7F97" transform="translate(18.375,-0.625)"></path></svg>