<svg xmlns="http://www.w3.org/2000/svg" width="64" height="64"><path d="M0 0 C0.66 1.65 1.32 3.3 2 5 C14.54 5 27.08 5 40 5 C40.66 3.35 41.32 1.7 42 0 C46.30558651 -1.4351955 48.98668157 -1.00665921 53 1 C52.63495936 6.66442374 51.9445679 11.00703705 49 16 C49.66 16.66 50.32 17.32 51 18 C50.85421465 21.93620456 50.54997441 24.28503327 48.125 27.4375 C46 29 46 29 43 29 C42.896875 29.78375 42.79375 30.5675 42.6875 31.375 C42 34 42 34 39 36 C36.28934498 36.20785815 33.6839403 36.30403514 30.97265625 36.30078125 C30.18733017 36.30506638 29.40200409 36.3093515 28.59288025 36.31376648 C26.93277958 36.31950642 25.27265375 36.3200125 23.61254883 36.31567383 C21.07524601 36.31251586 18.53911161 36.33596885 16.00195312 36.36132812 C14.3880223 36.36360139 12.77408835 36.36430449 11.16015625 36.36328125 C10.02405663 36.37709587 10.02405663 36.37709587 8.86500549 36.39118958 C5.69318825 36.36339323 3.340353 36.17257662 0.48999023 34.72729492 C-1 33 -1 33 -1 29 C-1.763125 28.95875 -2.52625 28.9175 -3.3125 28.875 C-6 28 -6 28 -7.875 25.25 C-9.07904723 21.77164134 -8.85938291 20.46107636 -8 17 C-6.04310341 16.77857745 -4.08438048 16.5732432 -2.125 16.375 C-0.48917969 16.20097656 -0.48917969 16.20097656 1.1796875 16.0234375 C2.11039063 16.01570313 3.04109375 16.00796875 4 16 C6.40346379 18.40346379 6.32083747 19.13900195 6.375 22.4375 C6.30673342 26.68368116 6.30673342 26.68368116 4 29.0625 C3.01 29.5265625 3.01 29.5265625 2 30 C2.33 30.66 2.66 31.32 3 32 C15.21 32 27.42 32 40 32 C40 31.34 40 30.68 40 30 C39.360625 29.5875 38.72125 29.175 38.0625 28.75 C36 27 36 27 35.125 24.125 C34.99242439 20.81060965 35.53057595 18.93884811 37 16 C39.97 16 42.94 16 46 16 C46.66 13.69 47.32 11.38 48 9 C30.18 9.33 12.36 9.66 -6 10 C-5.67 11.98 -5.34 13.96 -5 16 C-8 15 -8 15 -8.94921875 13.36328125 C-10.4880547 9.08873693 -11.34619582 5.61594432 -11 1 C-7.2297564 -1.56376565 -4.32597804 -0.83191885 0 0 Z M-7 2 C-7.33 3.32 -7.66 4.64 -8 6 C-7.34 6 -6.68 6 -6 6 C-6 5.01 -6 4.02 -6 3 C-4.68 2.67 -3.36 2.34 -2 2 C-3.65 2 -5.3 2 -7 2 Z M45 2 C45.99 2.33 46.98 2.66 48 3 C48 3.99 48 4.98 48 6 C48.66 6 49.32 6 50 6 C49.67 4.68 49.34 3.36 49 2 C47.68 2 46.36 2 45 2 Z M-5 19 C-5.33 19.66 -5.66 20.32 -6 21 C-4.69392077 23.8183815 -3.82357888 25.58821056 -1 27 C1.07232928 27.17578762 1.07232928 27.17578762 2.8125 25.875 C4.28399746 23.98646792 4.28399746 23.98646792 3.6875 21.3125 C3.3471875 20.1678125 3.3471875 20.1678125 3 19 C0.36 19 -2.28 19 -5 19 Z M39 19 C38.23043864 21.34533951 38.23043864 21.34533951 38 24 C39.33378575 25.8354799 39.33378575 25.8354799 41 27 C43.47627099 26.36078035 43.47627099 26.36078035 46 25 C47.36078035 22.47627099 47.36078035 22.47627099 48 20 C45.03 19.67 42.06 19.34 39 19 Z " fill="#000000" transform="translate(11,28)"></path><path d="M0 0 C0.99 0 1.98 0 3 0 C1.66666667 2.66666667 0.33333333 5.33333333 -1 8 C4.94 8 10.88 8 17 8 C15.68 6.02 14.36 4.04 13 2 C13 1.34 13 0.68 13 0 C14.79296875 0.1640625 14.79296875 0.1640625 17 1 C18.73828125 3.3984375 18.73828125 3.3984375 20.3125 6.375 C20.84488281 7.35210938 21.37726562 8.32921875 21.92578125 9.3359375 C23 12 23 12 22 15 C21.01 15 20.02 15 19 15 C18.9071875 16.3303125 18.9071875 16.3303125 18.8125 17.6875 C17.78800569 21.86428451 16.37322289 23.3763822 13 26 C9.1048111 27.35484831 7.28020368 27.08548587 3.3125 25.875 C-0.22308663 23.87372455 -1.46141828 22.7106971 -3 19 C-3 17.68 -3 16.36 -3 15 C-4.32 14.67 -5.64 14.34 -7 14 C-2.8 2.8 -2.8 2.8 0 0 Z M-2 11 C-2 11.33 -2 11.66 -2 12 C4.6 12 11.2 12 18 12 C18 11.67 18 11.34 18 11 C11.4 11 4.8 11 -2 11 Z M0 15 C0.76083331 20.02694636 0.76083331 20.02694636 4 23 C6.36462492 24.00635246 6.36462492 24.00635246 9 24 C12.48634601 22.37844371 13.84302194 21.23546708 16 18 C16 17.01 16 16.02 16 15 C10.72 15 5.44 15 0 15 Z " fill="#7BACCA" transform="translate(24,6)"></path><path d="M0 0 C0.99 0 1.98 0 3 0 C3.556875 1.423125 3.556875 1.423125 4.125 2.875 C5.74691694 6.17760514 5.74691694 6.17760514 8.875 7.5625 C11.99603716 8.25766363 11.99603716 8.25766363 14.75 6.9375 C17.26574643 4.77116279 18.0636063 3.14968791 19 0 C19.99 0 20.98 0 22 0 C21.73201762 3.84108078 21.205317 5.736021 18.8125 8.8125 C15.59818782 11.31252059 14.05746382 12 10 12 C6.00222938 10.78034117 3.68021223 9.85575087 1.0625 6.5625 C0 4 0 4 0 0 Z " fill="#000000" transform="translate(21,21)"></path><path d="M0 0 C2.475 0.99 2.475 0.99 5 2 C5 4.97 5 7.94 5 11 C4.01 11 3.02 11 2 11 C2 8.69 2 6.38 2 4 C1.34 4 0.68 4 0 4 C0 6.31 0 8.62 0 11 C-0.99 11 -1.98 11 -3 11 C-3.36923077 3.49230769 -3.36923077 3.49230769 -1.5 1 C-1.005 0.67 -0.51 0.34 0 0 Z " fill="#7BACCC" transform="translate(31,0)"></path></svg>