<svg xmlns="http://www.w3.org/2000/svg" width="37" height="37"><path d="M0 0 C0.5 2.6875 0.5 2.6875 0 6 C-1.92677681 7.50446956 -3.94041477 8.59809673 -6.0859375 9.765625 C-8.62857969 11.40536976 -9.33552052 13.09290226 -10 16 C-6.7 16 -3.4 16 0 16 C0 21.61 0 27.22 0 33 C-5.28 33 -10.56 33 -16 33 C-16.10825949 29.45750883 -16.18744405 25.91834751 -16.25 22.375 C-16.28351562 21.37597656 -16.31703125 20.37695312 -16.3515625 19.34765625 C-16.4331166 13.190322 -16.11625636 9.67961261 -12 5 C-8.00571206 1.30528365 -5.37833276 0 0 0 Z " fill="#5C8097" transform="translate(37,2)"></path><path d="M0 0 C0 1.98 0 3.96 0 6 C-0.928125 6.4125 -1.85625 6.825 -2.8125 7.25 C-7.02190315 9.56104487 -8.49900577 11.49701732 -10 16 C-6.7 16 -3.4 16 0 16 C0 21.61 0 27.22 0 33 C-5.28 33 -10.56 33 -16 33 C-16.10825949 29.45750883 -16.18744405 25.91834751 -16.25 22.375 C-16.28351562 21.37597656 -16.31703125 20.37695312 -16.3515625 19.34765625 C-16.43309409 13.19202139 -16.12022867 9.67559647 -12 5 C-7.94750678 1.34287197 -5.5529927 0 0 0 Z " fill="#5C8097" transform="translate(16,2)"></path></svg>