<svg xmlns="http://www.w3.org/2000/svg" width="41" height="41"><path d="M0,0 L5,0 L5,1 L6,1 L6,0 L15,0 L15,1 L18,1 L18,2 L20,2 L20,3 L21,3 L21,5 L14,5 L14,8 L13,8 L13,34 L12,34 L12,35 L8,35 L8,34 L7,34 L7,8 L6,8 L6,6 L5,6 L5,7 L0,7 Z M9,1 L9,6 L12,6 L12,3 L15,3 L15,2 L10,2 L10,1 Z M1,2 L1,5 L3,5 L3,2 Z M5,3 L5,4 L6,4 L6,3 Z M9,8 L9,9 L11,9 L11,8 Z M9,11 L9,12 L11,12 L11,11 Z M9,14 L9,20 L11,20 L11,14 Z M9,22 L9,23 L11,23 L11,22 Z M9,32 L9,33 L11,33 L11,32 Z " fill="#5C7F96" transform="translate(10,3)"></path></svg>