<svg xmlns="http://www.w3.org/2000/svg" width="41" height="41" viewBox="0 0 41 41" fill="none"><path d="M14.6931 8.85753H16.4987V10.477H17.7063V12.3816V13.3425V15.2635V24.8953V35.7289C17.7063 36.9517 18.7013 37.9467 19.9242 37.9467H20.0058C21.2286 37.9467 22.2235 36.9517 22.2235 35.7289V24.8953V18.4363L21.2626 18.4362V23.9344H18.6673V16.2244H21.2626V16.9195V17.4124H22.2235V16.9195V15.2635V13.3425V12.3816V10.477H23.2199V7.46009C24.312 7.36639 27.351 7.20976 30.0738 8.03128C30.3803 8.12369 30.7056 7.98228 30.8469 7.69463C30.9882 7.40715 30.9018 7.0633 30.6411 6.87704L29.8442 6.3072C27.3354 4.51305 22.5821 3.05347 19.2486 3.05347H16.4987V4.36643H14.6931V3.53434H10.0856V9.49671H14.6931V8.85753ZM21.2626 24.8953V35.7289C21.2626 36.4219 20.6988 36.9858 20.0058 36.9858H19.9242C19.2311 36.9858 18.6673 36.4219 18.6673 35.7289V24.8953H21.2626ZM21.2626 15.2635H18.6673V13.3425H21.2626V15.2635ZM21.2626 12.3816H18.6673V10.477H21.2626V12.3816ZM28.736 6.72585C25.6829 6.17011 22.8183 6.53102 22.6773 6.54944L22.2591 6.60405V9.51617H22.2236H18.9408V4.0144H19.2487C22.1299 4.0144 26.2868 5.22286 28.736 6.72585ZM17.4597 4.0144H17.9798V9.51617H17.7063H17.4599V5.46029H17.4597V4.36643V4.0144ZM16.4987 5.32729V7.89659H14.6931V5.32729H16.4987ZM11.0465 4.49527H13.7322V8.53578H11.0465V4.49527Z" fill="#5C8097"></path><path d="M20.4454 29.5466H19.4845V34.8553H20.4454V29.5466Z" fill="#5C8097"></path><path d="M20.4454 26.7405H19.4845V28.5544H20.4454V26.7405Z" fill="#5C8097"></path></svg>