<svg xmlns="http://www.w3.org/2000/svg" width="41" height="41"><path d="M0 0 C2.38 -0.08 4.75 -0.14 7.12 -0.19 C7.79 -0.21 8.46 -0.24 9.14 -0.26 C13.87 -0.33 16.95 0.6 21 3 C21 3.66 21 4.32 21 5 C18.69 5 16.38 5 14 5 C13.67 14.57 13.34 24.14 13 34 C10.52 34.49 10.52 34.49 8 35 C6.23 33.23 6.79 30.65 6.72 28.25 C6.66 26.5 6.66 26.5 6.61 24.72 C6.54 22.24 6.46 19.76 6.39 17.28 C6.34 15.53 6.34 15.53 6.28 13.75 C6.25 12.67 6.22 11.59 6.19 10.48 C6.28 8.06 6.28 8.06 5 7 C3.33 6.96 1.67 6.96 0 7 C0 4.69 0 2.38 0 0 Z M9 1 C9 2.65 9 4.3 9 6 C9.99 6 10.98 6 12 6 C12 5.01 12 4.02 12 3 C12.99 2.67 13.98 2.34 15 2 C12.03 1.5 12.03 1.5 9 1 Z M1 2 C1 2.99 1 3.98 1 5 C1.66 5 2.32 5 3 5 C3 4.01 3 3.02 3 2 C2.34 2 1.68 2 1 2 Z M9 14 C9 15.98 9 17.96 9 20 C9.66 20 10.32 20 11 20 C11 18.02 11 16.04 11 14 C10.34 14 9.68 14 9 14 Z " fill="#5C7F96" transform="translate(10,3)"></path></svg>