<svg xmlns="http://www.w3.org/2000/svg" width="21" height="35"><path d="M0 0 C2.37570543 -0.0816082 4.74855841 -0.14077222 7.125 -0.1875 C7.79015625 -0.21263672 8.4553125 -0.23777344 9.140625 -0.26367188 C13.86902292 -0.33320714 16.95121479 0.59721625 21 3 C21 3.66 21 4.32 21 5 C18.69 5 16.38 5 14 5 C13.67 14.57 13.34 24.14 13 34 C10.525 34.495 10.525 34.495 8 35 C6.22985317 33.22985317 6.7862501 30.65128021 6.71875 28.25 C6.66267578 26.50203125 6.66267578 26.50203125 6.60546875 24.71875 C6.53515625 22.23958333 6.46484375 19.76041667 6.39453125 17.28125 C6.33845703 15.53328125 6.33845703 15.53328125 6.28125 13.75 C6.25095703 12.67234375 6.22066406 11.5946875 6.18945312 10.484375 C6.27571437 8.05861658 6.27571437 8.05861658 5 7 C3.33382885 6.95936168 1.66611905 6.957279 0 7 C0 4.69 0 2.38 0 0 Z M9 1 C9 2.65 9 4.3 9 6 C9.99 6 10.98 6 12 6 C12 5.01 12 4.02 12 3 C12.99 2.67 13.98 2.34 15 2 C12.03 1.505 12.03 1.505 9 1 Z M1 2 C1 2.99 1 3.98 1 5 C1.66 5 2.32 5 3 5 C3 4.01 3 3.02 3 2 C2.34 2 1.68 2 1 2 Z M9 14 C9 15.98 9 17.96 9 20 C9.66 20 10.32 20 11 20 C11 18.02 11 16.04 11 14 C10.34 14 9.68 14 9 14 Z M9 22 C9 25.63 9 29.26 9 33 C9.66 33 10.32 33 11 33 C11 29.37 11 25.74 11 22 C10.34 22 9.68 22 9 22 Z " fill="#5C7F96" transform="translate(0,0)"></path></svg>