<svg xmlns="http://www.w3.org/2000/svg" width="37" height="37"><path d="M0 0 C1.65 0 3.3 0 5 0 C5.33 1.65 5.66 3.3 6 5 C6.33 4.01 6.66 3.02 7 2 C9.5 3.8125 9.5 3.8125 12 6 C12 6.99 12 7.98 12 9 C12.66 9 13.32 9 14 9 C13.67 10.65 13.34 12.3 13 14 C12.34 14 11.68 14 11 14 C9.49069817 17.3863251 9.49069817 17.3863251 9 21 C9.886875 21.061875 10.77375 21.12375 11.6875 21.1875 C15.77444675 22.18995864 17.30264829 23.84024514 20 27 C21.60725635 30.21451269 21.05748185 33.43612536 21 37 C18.69 37 16.38 37 14 37 C13.67 35.02 13.34 33.04 13 31 C6.07 31 -0.86 31 -8 31 C-8.33 32.98 -8.66 34.96 -9 37 C-11.31 37 -13.62 37 -16 37 C-16.30640669 27.80779944 -16.30640669 27.80779944 -14 25 C-10.6167972 22.62238393 -7.12760312 20.6604165 -3 20 C-3.495 19.38125 -3.99 18.7625 -4.5 18.125 C-6 16 -6 16 -6 14 C-6.99 13.67 -7.98 13.34 -9 13 C-9 11.68 -9 10.36 -9 9 C-8.34 9 -7.68 9 -7 9 C-6.9175 8.401875 -6.835 7.80375 -6.75 7.1875 C-5.78423221 4.37067727 -4.51131433 3.52200868 -2 2 C-1.34 2 -0.68 2 0 2 C0 1.34 0 0.68 0 0 Z " fill="#5C7F96" transform="translate(16,0)"></path><path d="M0 0 C3.3 0 6.6 0 10 0 C10 1.65 10 3.3 10 5 C6.7 5 3.4 5 0 5 C0 3.35 0 1.7 0 0 Z " fill="#5C8096" transform="translate(19,32)"></path><path d="M0 0 C3.3 0 6.6 0 10 0 C10 1.65 10 3.3 10 5 C6.7 5 3.4 5 0 5 C0 3.35 0 1.7 0 0 Z " fill="#5C8096" transform="translate(8,32)"></path></svg>