<svg xmlns="http://www.w3.org/2000/svg" width="64" height="64"><path d="M0 0 C2.25 0.125 2.25 0.125 5 1 C10.50473854 7.76296449 11.45016882 14.44055987 11.32421875 22.91796875 C10.87959917 27.14453321 9.98627469 29.01372531 7 32 C6.01 32 5.02 32 4 32 C4 33.65 4 35.3 4 37 C4.99 37 5.98 37 7 37 C6.67 37.99 6.34 38.98 6 40 C5.34 40 4.68 40 4 40 C4 41.32 4 42.64 4 44 C3.01 44 2.02 44 1 44 C0.67 43.01 0.34 42.02 0 41 C-4.95514502 41.87472593 -4.95514502 41.87472593 -8.4375 45.125 C-8.7159375 46.053125 -8.7159375 46.053125 -9 47 C-10.32 46.67 -11.64 46.34 -13 46 C-13.2113453 48.3912295 -13.2113453 48.3912295 -12 51 C-0.42169167 58.25733141 17.12170992 57.69786483 30.140625 55.3984375 C34.324991 54.3781118 37.40356695 53.39762203 41 51 C41.99 51 42.98 51 44 51 C44 51.99 44 52.98 44 54 C34.27075665 59.30686001 25.65498584 60.3458031 14.625 60.3125 C13.56539062 60.32861328 12.50578125 60.34472656 11.4140625 60.36132812 C1.41705412 60.36745374 -7.62545696 58.64371379 -16 53 C-17.43735246 50.12529507 -17.38172649 48.18105412 -17 45 C-15.33333333 43.66666667 -13.66666667 42.33333333 -12 41 C-11.16666667 38 -11.16666667 38 -12 35 C-14.360962 32.7110076 -14.360962 32.7110076 -17 31 C-19.54273307 25.91453385 -18.61294901 17.9160148 -17.46875 12.47265625 C-16.02735086 8.39130324 -13.89140117 5.19051163 -11 2 C-7.73045798 2.56371414 -6.17424117 3.49962266 -4 6 C-2.68 4.02 -1.36 2.04 0 0 Z M1 4 C-2.96080049 8.83645304 -2.15617613 13.44367943 -1.6875 19.3125 C-1.62626953 20.24384766 -1.56503906 21.17519531 -1.50195312 22.13476562 C-1.34929686 24.42460961 -1.1815537 26.71229615 -1 29 C-0.34 29 0.32 29 1 29 C1 27.35 1 25.7 1 24 C3.51083114 25.25541557 3.87125446 26.50063488 5 29 C8.50494488 25.01161444 8.49756984 22.05010164 8.359375 16.90234375 C7.8220901 12.56318416 6.50879672 8.60796852 4 5 C3.01 4.67 2.02 4.34 1 4 Z M-10 5 C-14.74231698 12.50302294 -16.17969517 19.1460773 -15 28 C-14.34 28.99 -13.68 29.98 -13 31 C-12.34 31 -11.68 31 -11 31 C-11.62759865 28.07120629 -12.58622659 25.63904371 -14 23 C-12.35 23.99 -10.7 24.98 -9 26 C-7.68 25.01 -6.36 24.02 -5 23 C-5.495 23.763125 -5.99 24.52625 -6.5 25.3125 C-8.24368308 27.92363751 -8.24368308 27.92363751 -8 31 C-7.01 30.67 -6.02 30.34 -5 30 C-2.77240662 25.54481324 -3.49154174 19.83035345 -4 15 C-5.3014598 11.40960915 -6.96211737 8.22422144 -9 5 C-9.33 5 -9.66 5 -10 5 Z M-3 31 C-5.77512121 32.60336043 -5.77512121 32.60336043 -8 35 C-8 36.32 -8 37.64 -8 39 C-5.03 38.34 -2.06 37.68 1 37 C0.67 35.35 0.34 33.7 0 32 C-0.99 31.67 -1.98 31.34 -3 31 Z " fill="#000000" transform="translate(18,4)"></path><path d="M0 0 C1.99954746 -0.04254356 4.00041636 -0.04080783 6 0 C7 1 7 1 7.3125 4.0625 C7.89585769 7.40354858 8.3822605 8.97850803 9.9375 11.8125 C11.52132017 14.73815243 12.31512287 17.20616611 12.80859375 20.48828125 C13.99853544 26.84339936 16.52562015 32.48452857 19.125 38.375 C20.05077552 40.48413597 20.97033605 42.59601396 21.8828125 44.7109375 C22.28902832 45.63181152 22.69524414 46.55268555 23.11376953 47.50146484 C24 50 24 50 24 54 C20.82915948 52.94305316 20.26600591 52.26600591 18 50 C17.071875 49.54625 16.14375 49.0925 15.1875 48.625 C10.02136504 45.34923021 8.02096412 38.49673576 6 33 C6 32.01 6 31.02 6 30 C3.58572991 29.88311324 3.58572991 29.88311324 1 31 C-0.32502696 33.63516597 -1.33831456 36.05401386 -2.3125 38.8125 C-5.80993978 47.79206893 -5.80993978 47.79206893 -10.25 49.8125 C-11.4875 50.204375 -12.725 50.59625 -14 51 C-15.71050161 52.49582472 -15.71050161 52.49582472 -17 54 C-18.293936 50.11819199 -17.41424844 49.05235547 -15.76171875 45.37109375 C-15.27123047 44.25283203 -14.78074219 43.13457031 -14.27539062 41.98242188 C-13.22895657 39.64628681 -12.1820919 37.31034458 -11.13476562 34.97460938 C-8.52075104 29.01383818 -6.36211308 23.46773478 -5.3840332 17.01416016 C-4.82252286 14.06917584 -3.35707252 11.65760035 -2 9 C-1.19829716 6.0243545 -0.571865 3.02752057 0 0 Z M2 3 C2 4.65 2 6.3 2 8 C2.66 8 3.32 8 4 8 C4 6.35 4 4.7 4 3 C3.34 3 2.68 3 2 3 Z M0 11 C0 13.31 0 15.62 0 18 C1.98 18 3.96 18 6 18 C6 15.69 6 13.38 6 11 C4.02 11 2.04 11 0 11 Z M-3 19 C-3 20.65 -3 22.3 -3 24 C-2.67 24 -2.34 24 -2 24 C-2 22.35 -2 20.7 -2 19 C-2.33 19 -2.66 19 -3 19 Z M8 20 C7.34 21.98 6.68 23.96 6 26 C6.99 25.67 7.98 25.34 9 25 C9.33 23.35 9.66 21.7 10 20 C9.34 20 8.68 20 8 20 Z M1 21 C1.33 21.66 1.66 22.32 2 23 C2.99 23 3.98 23 5 23 C5 22.34 5 21.68 5 21 C3.68 21 2.36 21 1 21 Z M0 26 C0 26.33 0 26.66 0 27 C1.98 27 3.96 27 6 27 C6 26.67 6 26.34 6 26 C4.02 26 2.04 26 0 26 Z M10 27 C8.47246665 31.72469619 9.66387805 34.35920998 11.75 38.75 C12.28109375 39.89984375 12.8121875 41.0496875 13.359375 42.234375 C14.7604629 45.28380956 14.7604629 45.28380956 18 46 C16.17778624 39.38757278 13.94776396 33.19479329 11 27 C10.67 27 10.34 27 10 27 Z M-5 28 C-6.19706817 30.6210121 -7.38288646 33.24614696 -8.5625 35.875 C-8.90474609 36.62136719 -9.24699219 37.36773437 -9.59960938 38.13671875 C-10.45973857 40.06549332 -11.23616798 42.0311033 -12 44 C-11.67 44.66 -11.34 45.32 -11 46 C-7.31594134 42.81974423 -5.88741608 39.798378 -4.25 35.25 C-3.82203125 34.07953125 -3.3940625 32.9090625 -2.953125 31.703125 C-2.63859375 30.81109375 -2.3240625 29.9190625 -2 29 C-2.99 28.67 -3.98 28.34 -5 28 Z " fill="#7BACCC" transform="translate(40,0)"></path><path d="M0 0 C0 0.99 0 1.98 0 3 C-1.53836708 3.65365399 -3.08088766 4.29753603 -4.625 4.9375 C-5.48351562 5.29714844 -6.34203125 5.65679687 -7.2265625 6.02734375 C-13.24479336 8.13796274 -19.07975365 8.12776172 -25.375 8.0625 C-26.62216797 8.05573242 -26.62216797 8.05573242 -27.89453125 8.04882812 C-29.92971897 8.03713164 -31.96486923 8.01919935 -34 8 C-34 7.01 -34 6.02 -34 5 C-32.91203125 4.96261719 -31.8240625 4.92523438 -30.703125 4.88671875 C-20.37606307 4.45323423 -9.75416028 0 0 0 Z " fill="#000000" transform="translate(59,52)"></path><path d="M0 0 C1.65 0 3.3 0 5 0 C5.33 0.99 5.66 1.98 6 3 C4.02 3 2.04 3 0 3 C0 2.01 0 1.02 0 0 Z " fill="#000000" transform="translate(17,56)"></path></svg>