<svg xmlns="http://www.w3.org/2000/svg" width="19" height="16"><path d="M0 0 C6.27 0 12.54 0 19 0 C19 5.28 19 10.56 19 16 C12.73 16 6.46 16 0 16 C0 10.72 0 5.44 0 0 Z M3 3 C3.66 3.66 4.32 4.32 5 5 C5 4.34 5 3.68 5 3 C4.34 3 3.68 3 3 3 Z M3 7 C3 8.98 3 10.96 3 13 C3.66 13 4.32 13 5 13 C5 11.02 5 9.04 5 7 C4.34 7 3.68 7 3 7 Z M8 7 C8 8.98 8 10.96 8 13 C8.66 13 9.32 13 10 13 C10 11.02 10 9.04 10 7 C9.34 7 8.68 7 8 7 Z M11 7 C11.99 7.33 12.98 7.66 14 8 C14 9.65 14 11.3 14 13 C14.66 13 15.32 13 16 13 C16 11.35 16 9.7 16 8 C14.35 7.67 12.7 7.34 11 7 Z " fill="#FFFFFF" transform="translate(0,0)"></path></svg>