<svg xmlns="http://www.w3.org/2000/svg" width="18" height="21"><path d="M0 0 C2.60138211 2.89042456 2.6875 5.03071795 2.6875 8.875 C1.38633679 12.4223053 -0.6635325 15.18416363 -3.25 17.9375 C-5.3125 18.875 -5.3125 18.875 -7.8125 18.375 C-12.09033664 15.80829802 -13.9210385 13.22064891 -15.3125 8.4375 C-15.3125 3.99843407 -14.16997974 2.20872637 -11.3125 -1.125 C-7.09241246 -2.53169585 -3.98059488 -1.93650562 0 0 Z M-11.1875 2 C-12.90522195 4.86286991 -12.82831456 6.58668219 -12.3125 9.875 C-10.83003485 12.14502476 -9.19719231 13.89607308 -7.3125 15.875 C-3.94879679 14.48312281 -2.09343669 13.08068604 -0.3125 9.875 C0.07555206 6.70590818 0.22327671 4.76796119 -1.4375 2 C-4.70697309 0.03831614 -7.91802691 0.03831614 -11.1875 2 Z " fill="#5C7F97" transform="translate(15.3125,2.125)"></path><path d="M0 0 C0.598125 0.226875 1.19625 0.45375 1.8125 0.6875 C2.5 2.5 2.5 2.5 2.8125 4.6875 C1.625 6.5 1.625 6.5 -0.1875 7.6875 C-2.375 7.375 -2.375 7.375 -4.1875 6.6875 C-4.875 4.875 -4.875 4.875 -5.1875 2.6875 C-3.58493056 0.24147296 -2.95482043 -0.4221172 0 0 Z M-2.1875 2.6875 C-2.1875 3.3475 -2.1875 4.0075 -2.1875 4.6875 C-1.5275 4.6875 -0.8675 4.6875 -0.1875 4.6875 C-0.1875 4.0275 -0.1875 3.3675 -0.1875 2.6875 C-0.8475 2.6875 -1.5075 2.6875 -2.1875 2.6875 Z " fill="#5C7F96" transform="translate(10.1875,5.3125)"></path></svg>