<svg xmlns="http://www.w3.org/2000/svg" width="64" height="64"><path d="M0 0 C21.12 0 42.24 0 64 0 C64 1.32 64 2.64 64 4 C62.02 4 60.04 4 58 4 C58.433125 4.80824219 58.86625 5.61648437 59.3125 6.44921875 C59.869375 7.51785156 60.42625 8.58648437 61 9.6875 C61.556875 10.74324219 62.11375 11.79898438 62.6875 12.88671875 C63.9672274 15.92226262 64.28851043 17.76026826 64 21 C62.68 21 61.36 21 60 21 C57.36 15.72 54.72 10.44 52 5 C52.54140625 7.85398437 52.54140625 7.85398437 53.09375 10.765625 C53.56268912 13.26038112 54.03142876 15.75517475 54.5 18.25 C54.73847656 19.50425781 54.97695313 20.75851563 55.22265625 22.05078125 C55.44824219 23.25605469 55.67382812 24.46132813 55.90625 25.703125 C56.11572266 26.81333008 56.32519531 27.92353516 56.54101562 29.06738281 C57 32 57 32 57 36 C55.35 35.67 53.7 35.34 52 35 C51.14297549 30.90710015 50.28854292 26.81367049 49.43652344 22.71972656 C49.14622291 21.3266737 48.85521074 19.93376895 48.56347656 18.54101562 C48.14461725 16.54074871 47.72830802 14.53996563 47.3125 12.5390625 C47.06113281 11.33459473 46.80976562 10.13012695 46.55078125 8.88916016 C46 6 46 6 46 4 C36.76 4 27.52 4 18 4 C16.43876667 12.65948154 16.43876667 12.65948154 14.88916016 21.32104492 C14.69112793 22.40490479 14.4930957 23.48876465 14.2890625 24.60546875 C14.09006348 25.71043701 13.89106445 26.81540527 13.68603516 27.95385742 C13.04331898 30.80765448 12.17084415 33.32533929 11 36 C9.68 36 8.36 36 7 36 C7.68110706 29.06704711 8.78040181 22.28290765 10.0625 15.4375 C10.24876953 14.42880859 10.43503906 13.42011719 10.62695312 12.38085938 C11.08179536 9.92004628 11.54049644 7.45994695 12 5 C9.36 10.28 6.72 15.56 4 21 C2.68 21 1.36 21 0 21 C0.47587116 14.97229862 3.19722957 10.23321711 6 5 C3.03 4.505 3.03 4.505 0 4 C0 2.68 0 1.36 0 0 Z " fill="#000000" transform="translate(0,28)"></path><path d="M0 0 C1.32 0 2.64 0 4 0 C3.85704109 1.39613065 3.71048442 2.79189308 3.5625 4.1875 C3.48128906 4.96480469 3.40007813 5.74210938 3.31640625 6.54296875 C2.99402379 9.04640786 2.49501895 11.52490524 2 14 C8.6 14.33 15.2 14.66 22 15 C21.505 12.6796875 21.505 12.6796875 21 10.3125 C20.25021703 6.79789232 19.8963548 3.59519292 20 0 C22.475 0.495 22.475 0.495 25 1 C25.34019152 2.39417773 25.67181779 3.79044658 26 5.1875 C26.185625 5.96480469 26.37125 6.74210938 26.5625 7.54296875 C27 10 27 10 27 15 C31.29 15 35.58 15 40 15 C40 16.32 40 17.64 40 19 C21.52 19 3.04 19 -16 19 C-16 17.68 -16 16.36 -16 15 C-11.71 15 -7.42 15 -3 15 C-2.87625 13.63875 -2.7525 12.2775 -2.625 10.875 C-2.20562032 7.02764729 -1.39565453 3.62870178 0 0 Z " fill="#000000" transform="translate(20,0)"></path><path d="M0 0 C0.99 0.33 1.98 0.66 3 1 C3 3.97 3 6.94 3 10 C1.68 10 0.36 10 -1 10 C-1.02689216 8.52093108 -1.04634621 7.04172517 -1.0625 5.5625 C-1.07410156 4.73878906 -1.08570312 3.91507813 -1.09765625 3.06640625 C-1 1 -1 1 0 0 Z " fill="#7AACCC" transform="translate(31,52)"></path><path d="M0 0 C0.99 0.33 1.98 0.66 3 1 C3 3.97 3 6.94 3 10 C1.68 10 0.36 10 -1 10 C-1.02689216 8.52093108 -1.04634621 7.04172517 -1.0625 5.5625 C-1.07410156 4.73878906 -1.08570312 3.91507813 -1.09765625 3.06640625 C-1 1 -1 1 0 0 Z " fill="#7BACCC" transform="translate(31,35)"></path><path d="M0 0 C1.32 0 2.64 0 4 0 C4 2.97 4 5.94 4 9 C2.68 9 1.36 9 0 9 C0 6.03 0 3.06 0 0 Z " fill="#7BADCC" transform="translate(30,0)"></path></svg>