<svg xmlns="http://www.w3.org/2000/svg" width="60" height="64"><path d="M0 0 C3.63 0 7.26 0 11 0 C11.66 1.98 12.32 3.96 13 6 C17.41062136 7.0257259 19.92630576 7.03684712 24 5 C25.03531726 5.90027588 26.05294165 6.82093035 27.0625 7.75 C27.63097656 8.26046875 28.19945312 8.7709375 28.78515625 9.296875 C30 11 30 11 29.72265625 13.08203125 C29.48417969 13.71496094 29.24570312 14.34789062 29 15 C27.9190515 18.35094035 28.14626635 20.58506541 29 24 C30.4540625 23.9690625 30.4540625 23.9690625 31.9375 23.9375 C35 24 35 24 36 25 C36.09823937 26.66429051 36.12973631 28.33281931 36.125 30 C36.12886719 31.36125 36.12886719 31.36125 36.1328125 32.75 C36 35 36 35 35 36 C33.00041636 36.04080783 30.99954746 36.04254356 29 36 C28.32326553 39.40320934 28.32326553 39.40320934 28 43 C28.66 43.66 29.32 44.32 30 45 C29.9375 47.4375 29.9375 47.4375 29 50 C26.4375 51.8125 26.4375 51.8125 24 53 C16.58657642 44.91050949 16.58657642 44.91050949 16 41 C16.97516372 39.27721077 17.95867372 37.55702572 19.02734375 35.890625 C20.79400413 32.45663454 20.42441386 29.81972473 20 26 C18.20836693 20.82417112 15.84090998 18.51354942 11 16 C5.98833949 14.60787208 2.48643312 14.99531508 -2.203125 16.9765625 C-5.96780597 19.12079384 -7.66511175 21.99533525 -9 26 C-9.43921869 30.48003061 -9.0437234 33.26218963 -6.875 37.125 C-4.94831224 40.69725738 -4.94831224 40.69725738 -5.4375 43.5625 C-7.51495817 46.80333474 -9.69925233 49.91215444 -12 53 C-14.88437779 51.70700306 -16.87219421 50.34058637 -19 48 C-18.649375 47.505 -18.29875 47.01 -17.9375 46.5 C-16.53988399 42.77302397 -17.34967141 39.90197152 -18 36 C-18.804375 36.020625 -19.60875 36.04125 -20.4375 36.0625 C-23 36 -23 36 -24 35 C-24.07226502 33.14712498 -24.0838122 31.29166122 -24.0625 29.4375 C-24.05347656 28.42558594 -24.04445313 27.41367187 -24.03515625 26.37109375 C-24.02355469 25.58863281 -24.01195313 24.80617188 -24 24 C-22.02 24 -20.04 24 -18 24 C-17.01 20.535 -17.01 20.535 -16 17 C-16.515625 16.5875 -17.03125 16.175 -17.5625 15.75 C-19 14 -19 14 -19 12.125 C-17.53516766 9.01223127 -15.6538327 7.16009639 -13 5 C-9.88810326 5.09152637 -8.65325623 6.23116251 -6 8 C-2.8371515 7.19595537 -2.8371515 7.19595537 0 6 C0 4.02 0 2.04 0 0 Z M3 3 C2.979375 3.763125 2.95875 4.52625 2.9375 5.3125 C2 8 2 8 -1.3125 9.875 C-4.825662 10.94681214 -5.75689714 11.23014247 -9 10 C-10.32 10 -11.64 10 -13 10 C-13.66 11.32 -14.32 12.64 -15 14 C-14.34 14.66 -13.68 15.32 -13 16 C-13.25 17.75 -13.25 17.75 -14 20 C-14.350625 21.0725 -14.70125 22.145 -15.0625 23.25 C-15.371875 24.1575 -15.68125 25.065 -16 26 C-17.65 26.33 -19.3 26.66 -21 27 C-21 28.98 -21 30.96 -21 33 C-20.236875 33.020625 -19.47375 33.04125 -18.6875 33.0625 C-16 34 -16 34 -14.125 37.3125 C-13.05318786 40.825662 -12.76985753 41.75689714 -14 45 C-14 46.32 -14 47.64 -14 49 C-11.333492 46.83411155 -11.333492 46.83411155 -9 44 C-9.07190981 41.12360775 -9.86887686 39.28538565 -11.0625 36.6875 C-12.92946196 31.33554239 -12.64312923 26.81699554 -10.3125 21.75 C-7.80667731 17.26589624 -4.88263579 14.89853072 -0.25 12.6875 C5.17737599 11.53940123 10.01828553 11.94589656 14.9375 14.5625 C15.9584375 15.2740625 15.9584375 15.2740625 17 16 C17.66 16 18.32 16 19 16 C19.68620031 17.32338632 20.34786461 18.65949948 21 20 C21.37125 20.70125 21.7425 21.4025 22.125 22.125 C24.27567392 29.19150002 23.30186893 34.54634708 20 41 C20.82372291 44.54200849 22.26615086 46.63894847 25 49 C25.33 48.01 25.66 47.02 26 46 C25.66226563 45.37609375 25.32453125 44.7521875 24.9765625 44.109375 C24 42 24 42 24.4609375 39.640625 C24.76257812 38.85171875 25.06421875 38.0628125 25.375 37.25 C25.67148437 36.45078125 25.96796875 35.6515625 26.2734375 34.828125 C26.51320312 34.22484375 26.75296875 33.6215625 27 33 C28.98 33 30.96 33 33 33 C33 31.02 33 29.04 33 27 C32.071875 26.835 31.14375 26.67 30.1875 26.5 C26.75899879 24.88658767 26.35333461 24.48490428 24.9375 21.1875 C23.89950577 17.91244923 23.87129168 17.29419045 25.3125 14 C25.869375 13.34 26.42625 12.68 27 12 C26.01 11.01 25.02 10.02 24 9 C22.9275 9.37125 21.855 9.7425 20.75 10.125 C16.77263449 11.05305195 16.25090462 11.01780287 13 9 C11.68 9 10.36 9 9 9 C9 7.02 9 5.04 9 3 C7.02 3 5.04 3 3 3 Z " fill="#000000" transform="translate(24,0)"></path><path d="M0 0 C0.763125 0.0825 1.52625 0.165 2.3125 0.25 C1.9825 1.9 1.6525 3.55 1.3125 5.25 C1.9725 5.25 2.6325 5.25 3.3125 5.25 C3.3125 3.6 3.3125 1.95 3.3125 0.25 C6.1875 0.5625 6.1875 0.5625 9.3125 1.25 C11.78592266 4.96013399 11.69753486 6.86060262 11.3125 11.25 C10.82007812 11.81976563 10.32765625 12.38953125 9.8203125 12.9765625 C7.65214146 16.24567013 7.83699174 19.39703941 7.875 23.1875 C7.85501953 23.89068359 7.83503906 24.59386719 7.81445312 25.31835938 C7.81915877 30.33927856 8.97229565 32.61028415 12.3125 36.25 C12.96389814 40.15838883 12.63077229 41.72712409 10.5625 45.125 C8.3125 47.25 8.3125 47.25 4.3125 47.25 C4.3125 45.6 4.3125 43.95 4.3125 42.25 C3.6525 42.25 2.9925 42.25 2.3125 42.25 C2.6425 43.9 2.9725 45.55 3.3125 47.25 C0.63386078 47.46718696 -1.10378148 47.60440053 -3.4375 46.1875 C-5.35253525 43.21919537 -5.56674634 40.75185626 -5.6875 37.25 C-4.55099056 34.87366207 -3.54308971 33.10558971 -1.6875 31.25 C-1.45096477 28.72403741 -1.26576308 26.21892793 -1.125 23.6875 C-1.06022461 22.62112305 -1.06022461 22.62112305 -0.99414062 21.53320312 C-0.88778223 19.77238088 -0.78711154 18.0112168 -0.6875 16.25 C-1.326875 15.96125 -1.96625 15.6725 -2.625 15.375 C-4.6875 14.25 -4.6875 14.25 -5.6875 12.25 C-6.14190957 5.20665172 -6.14190957 5.20665172 -4.5 1.75 C-2.6875 0.25 -2.6875 0.25 0 0 Z M6.3125 4.25 C5.9825 5.24 5.6525 6.23 5.3125 7.25 C2.4375 7.375 2.4375 7.375 -0.6875 7.25 C-1.3475 6.59 -2.0075 5.93 -2.6875 5.25 C-3.07178348 9.4609755 -3.07178348 9.4609755 -1.3125 13.125 C0.25716014 14.43973666 0.25716014 14.43973666 2.3125 14.25 C2.26052079 17.33469706 2.16542865 20.41661559 2.0625 23.5 C2.04832031 24.37269531 2.03414062 25.24539062 2.01953125 26.14453125 C1.76864181 32.71783455 1.76864181 32.71783455 -0.75 35.65625 C-1.389375 36.1821875 -2.02875 36.708125 -2.6875 37.25 C-2.54400653 40.44954954 -2.54400653 40.44954954 -1.6875 43.25 C-1.0275 42.26 -0.3675 41.27 0.3125 40.25 C3.3125 39.875 3.3125 39.875 6.3125 40.25 C6.9725 41.24 7.6325 42.23 8.3125 43.25 C9.16900653 40.44954954 9.16900653 40.44954954 9.3125 37.25 C8.3534375 36.4765625 8.3534375 36.4765625 7.375 35.6875 C4.14756659 31.87326052 4.63718218 27.84755209 4.5625 23 C4.51802734 21.59621094 4.51802734 21.59621094 4.47265625 20.1640625 C4.40210196 17.85928908 4.34933748 15.55551832 4.3125 13.25 C5.6325 12.59 6.9525 11.93 8.3125 11.25 C8.3125 9.27 8.3125 7.29 8.3125 5.25 C7.6525 4.92 6.9925 4.59 6.3125 4.25 Z " fill="#7CACCC" transform="translate(26.6875,16.75)"></path></svg>