<svg xmlns="http://www.w3.org/2000/svg" width="20" height="14"><path d="M0 0 C2.64 0 5.28 0 8 0 C8 3.71585856 7.80992422 4.9691533 6.25 8.125 C5.92515625 8.80820313 5.6003125 9.49140625 5.265625 10.1953125 C3.70599745 12.41922586 2.55052415 13.09437911 0 14 C-2.359375 14.1953125 -2.359375 14.1953125 -4.75 14.125 C-5.54921875 14.10695313 -6.3484375 14.08890625 -7.171875 14.0703125 C-7.77515625 14.04710937 -8.3784375 14.02390625 -9 14 C-9.33 13.34 -9.66 12.68 -10 12 C-9.01 12 -8.02 12 -7 12 C-7.7425 10.948125 -7.7425 10.948125 -8.5 9.875 C-10.1936681 6.62880281 -10.25162315 4.60659844 -10 1 C-4.25 2.875 -4.25 2.875 -2 4 C-1.34 2.68 -0.68 1.36 0 0 Z " fill="#FFFFFF" transform="translate(11,0)"></path></svg>